<svg width="77" height="71" viewBox="0 0 77 71" fill="none" xmlns="http://www.w3.org/2000/svg">
<path d="M0.00353176 70.6024V50.7295H5.76514L10.1103 68.5576H10.5647L14.9098 50.7295H20.6714V70.6024H17.6894V52.8879H17.2351L12.9183 70.6024H7.75311L3.43636 52.8879H2.98196V70.6024H0H0.00353176Z" fill="#F5F5F5"/>
<path d="M24.1934 70.6024V50.7295H27.1185V70.6024H24.1934Z" fill="#F5F5F5"/>
<path d="M36.114 70.8577C35.0526 70.8577 34.1083 70.6199 33.2741 70.1477C32.4398 69.6756 31.7866 69.0011 31.3145 68.1313C30.8423 67.2616 30.6045 66.2214 30.6045 65.0073V56.6045H33.5297V64.8085C33.5297 66.0191 33.8314 66.9137 34.4384 67.4923C35.0455 68.071 35.8869 68.3585 36.966 68.3585C38.1588 68.3585 39.1173 67.9574 39.8486 67.1515C40.5764 66.3457 40.942 65.1884 40.942 63.6725V56.6045H43.8671V70.5986H40.9988V68.497H40.5444C40.2781 69.065 39.806 69.601 39.1244 70.1016C38.4428 70.6021 37.4382 70.8542 36.114 70.8542V70.8577Z" fill="#F5F5F5"/>
<path d="M53.9703 71C52.6248 71 51.4108 70.716 50.3209 70.148C49.2311 69.58 48.372 68.7564 47.7365 67.6772C47.1011 66.598 46.7852 65.3023 46.7852 63.7864V63.4172C46.7852 61.9049 47.1011 60.6127 47.7365 59.5406C48.372 58.472 49.2311 57.6485 50.3209 57.0698C51.4072 56.4912 52.6248 56.2036 53.9703 56.2036C55.3157 56.2036 56.4588 56.4486 57.4066 56.942C58.3545 57.4355 59.1142 58.0887 59.6928 58.9016C60.2715 59.7146 60.6442 60.6163 60.8146 61.5996L57.9746 62.196C57.8788 61.5712 57.68 61.0032 57.3783 60.492C57.0765 59.9808 56.6505 59.5726 56.1003 59.2708C55.55 58.9691 54.8613 58.8164 54.0271 58.8164C53.1928 58.8164 52.4793 59.001 51.8261 59.3702C51.1729 59.7394 50.6582 60.2683 50.2783 60.9606C49.8985 61.6528 49.7103 62.4907 49.7103 63.474V63.7296C49.7103 64.713 49.8985 65.5579 50.2783 66.2572C50.6582 66.9566 51.1729 67.4891 51.8261 67.8476C52.4793 68.2062 53.2106 68.3872 54.0271 68.3872C55.2554 68.3872 56.1926 68.0713 56.8387 67.4358C57.4812 66.8004 57.8894 65.9945 58.0598 65.0076L60.8998 65.6608C60.6726 66.6264 60.2715 67.5174 59.6928 68.3304C59.1142 69.1433 58.3545 69.793 57.4066 70.2758C56.4588 70.7586 55.3157 71 53.9703 71Z" fill="#F5F5F5"/>
<path d="M63.5664 70.6024V50.7295H66.4916V62.0575H66.946L72.452 56.6083H76.3427L69.2747 63.3923L76.5699 70.6024H72.7076L66.946 64.7839H66.4916V70.6024H63.5664Z" fill="#F5F5F5"/>
<path d="M0.0605469 20.7V39.4618V47.2114H13.3268V26.1954L26.5894 12.9326L30.1429 9.3791L20.7639 0L0.0605469 20.7Z" fill="#F5F5F5"/>
<path d="M37.3429 16.582L30.1436 9.3791V47.2114H33.2249H43.4062H46.4876V26.1954L59.7538 12.9326L63.3037 9.3791L53.9248 0L37.3429 16.582Z" fill="#F5F5F5"/>
<path d="M63.3027 9.37939V47.2117H76.569V22.6457L63.3027 9.37939Z" fill="#F5F5F5"/>
<path d="M75.4014 6.7947C74.624 7.5757 73.6832 7.9662 72.5792 7.9662C71.4752 7.9662 70.538 7.5757 69.7641 6.7947C68.9937 6.01725 68.6104 5.0765 68.6104 3.9689C68.6104 2.8613 68.9973 1.9383 69.7747 1.16085C70.5486 0.386946 71.4823 0 72.5792 0C73.6761 0 74.624 0.386946 75.4014 1.16085C76.1789 1.93475 76.5658 2.87195 76.5658 3.9689C76.5658 5.06585 76.1753 6.0137 75.4014 6.7947ZM70.1617 1.55135C69.4978 2.21875 69.1641 3.02815 69.1641 3.976C69.1641 4.92385 69.4943 5.74389 70.1582 6.41839C70.822 7.08934 71.6314 7.4266 72.5828 7.4266C73.5342 7.4266 74.3435 7.08934 75.0074 6.41839C75.6712 5.74744 76.0049 4.93095 76.0049 3.976C76.0049 3.02105 75.6712 2.21875 75.0074 1.55135C74.34 0.880398 73.5306 0.543149 72.5828 0.543149C71.6349 0.543149 70.8326 0.880398 70.1652 1.55135H70.1617ZM72.5047 1.775C73.0478 1.775 73.4454 1.82825 73.6975 1.9312C74.1483 2.11935 74.3755 2.48855 74.3755 3.0388C74.3755 3.4293 74.2335 3.71684 73.9495 3.90144C73.7969 4.00084 73.5874 4.0683 73.3176 4.11445C73.6584 4.1677 73.9104 4.30969 74.0666 4.54399C74.2264 4.77474 74.3045 5.00194 74.3045 5.22204V5.54154C74.3045 5.64449 74.308 5.751 74.3151 5.86815C74.3222 5.9853 74.3364 6.05985 74.3542 6.09535L74.3826 6.1486H73.662C73.662 6.1486 73.6549 6.1202 73.6513 6.106C73.6478 6.0918 73.6442 6.07405 73.6407 6.0563L73.6229 5.9143V5.56995C73.6229 5.06585 73.4845 4.73215 73.2111 4.56885C73.0478 4.47655 72.7638 4.42685 72.3556 4.42685H71.7485V6.14505H70.9782V1.775H72.5082H72.5047ZM73.3389 2.4637C73.1437 2.35365 72.8348 2.3004 72.4053 2.3004H71.7485V3.8837H72.4443C72.7709 3.8837 73.0159 3.85175 73.1792 3.7843C73.4809 3.6636 73.63 3.4364 73.63 3.09915C73.63 2.77965 73.5342 2.56665 73.3389 2.46015V2.4637Z" fill="#F5F5F5"/>
</svg>
